<svg xmlns="http://www.w3.org/2000/svg" width="16.949" height="19.724" viewBox="64.297 0 16.949 19.724"><path d="M81.241 5.365a5.555 5.555 0 0 0-1.793-3.88 5.543 5.543 0 0 0-4.01-1.48 5.553 5.553 0 0 0-3.88 1.795l-6.279 6.775a.54.54 0 0 0 .026.76l.436.41a.54.54 0 0 0 .766-.027L72.79 2.94c.716-.776 1.767-1.223 2.881-1.223 1.001 0 1.94.356 2.64 1.003a3.879 3.879 0 0 1 1.254 2.715 3.867 3.867 0 0 1-1.026 2.797l-8.533 9.11a2.33 2.33 0 0 1-1.714.728 2.297 2.297 0 0 1-1.571-.598 2.322 2.322 0 0 1-.747-1.615c-.026-.619.19-1.21.607-1.661 0 0 7.942-8.476 7.955-8.487.695-.72 1.785.329 1.09 1.05-1.18 1.223-4.213 4.497-5.698 6.105a.54.54 0 0 0 .026.76l.436.41a.54.54 0 0 0 .766-.026l5.717-6.164a2.419 2.419 0 0 0-2.732-3.868c-.31.132-.587.326-.816.577l-7.97 8.499a4.008 4.008 0 0 0 .229 5.654c.712.659 1.672 1.019 2.704 1.019 1.146 0 2.218-.451 2.944-1.237l8.533-9.11a5.562 5.562 0 0 0 1.476-4.012Z" fill="#a7a7a7" fill-rule="evenodd" data-name="Контур 7"/></svg>