<svg id="clip-svgrepo-com" xmlns="http://www.w3.org/2000/svg" width="11.999" height="12.289" viewBox="0 0 11.999 12.289">
  <path id="Контур_7" data-name="Контур 7" d="M76.293,3.343A3.3,3.3,0,0,0,75.023.925,4.1,4.1,0,0,0,73.782.238,4.4,4.4,0,0,0,72.346,0l-.162,0a4.176,4.176,0,0,0-2.747,1.119L64.992,5.342a.309.309,0,0,0,.018.473l.309.255a.42.42,0,0,0,.542-.016l4.448-4.223a3.107,3.107,0,0,1,3.908-.137,2.306,2.306,0,0,1,.888,1.692,2.248,2.248,0,0,1-.726,1.743h0L68.339,10.8a1.849,1.849,0,0,1-2.325.081,1.381,1.381,0,0,1-.529-1.006,1.332,1.332,0,0,1,.429-1.035h0s5.623-5.28,5.632-5.287c.492-.449,1.264.2.772.653-.836.762-2.982,2.8-4.034,3.8a.309.309,0,0,0,.018.473l.309.255a.42.42,0,0,0,.542-.016L73.2,4.886a1.386,1.386,0,0,0-.1-2.131,1.848,1.848,0,0,0-1.163-.4,1.9,1.9,0,0,0-.674.121,1.667,1.667,0,0,0-.578.359h0l-5.643,5.3a2.292,2.292,0,0,0,.162,3.523,3.2,3.2,0,0,0,4-.136h0l6.041-5.676A3.234,3.234,0,0,0,76.293,3.343Z" transform="translate(-64.297)" fill="#a7a7a7"/>
</svg>
