<svg xmlns="http://www.w3.org/2000/svg" xmlns:xlink="http://www.w3.org/1999/xlink" width="84.771" height="130.901" viewBox="0 0 84.771 130.901">
  <defs>
    <clipPath id="clip-path">
      <rect id="Прямоугольник_26" data-name="Прямоугольник 26" width="84.771" height="130.901" fill="#a7a7a7"/>
    </clipPath>
  </defs>
  <g id="Сгруппировать_24" data-name="Сгруппировать 24" transform="translate(0 0)">
    <g id="Сгруппировать_23" data-name="Сгруппировать 23" transform="translate(0 0)" clip-path="url(#clip-path)">
      <path id="Контур_61" data-name="Контур 61" d="M11.855,35.051c-4.108.962-7.988,1.841-9.89,2.233a7.371,7.371,0,0,1-1.141.2c.327,1.369.872,3.167,1.254,4.522l.064.2c.027.085.4.057,1.169-.1,1.715-.357,4.981-1.293,8.545-2.421Z" transform="translate(0.633 26.931)" fill="#a7a7a7"/>
      <path id="Контур_62" data-name="Контур 62" d="M13.5,40.113a62.081,62.081,0,0,1-9.581,3.475c-.748.156-1.141.143-1.21,0l.948,2.039,1.162,2.251c.11.195.513.23,1.245.08A37.174,37.174,0,0,0,13.5,44.939V40.113Z" transform="translate(2.08 30.821)" fill="#a7a7a7"/>
      <path id="Контур_63" data-name="Контур 63" d="M15.162,44.9c-3.325,2.141-6.538,3.79-8.34,4.163-.7.147-1.125.087-1.286-.147.808,1.162,1.97,2.654,2.824,3.781.205.251.637.322,1.31.182a18.666,18.666,0,0,0,5.491-2.752Z" transform="translate(4.254 34.502)" fill="#a7a7a7"/>
      <path id="Контур_64" data-name="Контур 64" d="M14.928,57.568a1.643,1.643,0,0,1-1.279-.163l2.732,1.706,1.284.723a1.769,1.769,0,0,0,1.215.124,5.979,5.979,0,0,0,2.359-1.323V52.491c-2.262,2.744-4.631,4.727-6.311,5.077" transform="translate(10.487 40.331)" fill="#a7a7a7"/>
      <path id="Контур_65" data-name="Контур 65" d="M19.837,60.108a1.852,1.852,0,0,1-1.1-.071l.874.345c1.07.407,2.532.852,3.615,1.22a2.024,2.024,0,0,0,.964.023,2.73,2.73,0,0,0,.683-.274V55.293c-1.653,2.628-3.5,4.5-5.038,4.815" transform="translate(14.4 42.484)" fill="#a7a7a7"/>
      <path id="Контур_66" data-name="Контур 66" d="M24.374,61.553c1.441.223,3.379.4,4.835.55V56.985c-1.326,2.921-3.065,4.681-4.835,4.568" transform="translate(18.728 43.784)" fill="#a7a7a7"/>
      <path id="Контур_67" data-name="Контур 67" d="M28.989,0,25.562.06c1.531-.085,3,1.468,4.078,3.995V.021Z" transform="translate(19.641 0)" fill="#a7a7a7"/>
      <path id="Контур_68" data-name="Контур 68" d="M24.339.413,23.185.636l-3.332.829c1.551-.324,3.379,1.033,5,3.385V.4a2.145,2.145,0,0,0-.511.016" transform="translate(15.254 0.299)" fill="#a7a7a7"/>
      <path id="Контур_69" data-name="Контур 69" d="M18.662,2.127c-1.284.568-2.953,1.429-4.205,2.064a2.163,2.163,0,0,1,.6-.223c1.676-.345,4,1.125,6.218,3.623V2.479a3.446,3.446,0,0,0-2.614-.352" transform="translate(11.108 1.537)" fill="#a7a7a7"/>
      <path id="Контур_70" data-name="Контур 70" d="M18.023,10.891V5.784c-1.728-1.061-3.358-1.45-4.571-.755C12.388,5.81,11.028,6.935,10,7.764l-.184.161c1.618-1.238,4.833.06,8.21,2.966" transform="translate(7.54 3.595)" fill="#a7a7a7"/>
      <path id="Контур_71" data-name="Контур 71" d="M15.5,14.862V10.018c-2.21-1.263-4.232-1.915-5.56-1.639a1.838,1.838,0,0,0-1.012.534L7.511,10.537,5.95,12.5a1.732,1.732,0,0,1,1.075-.612c1.839-.38,5.116.859,8.474,2.971" transform="translate(4.572 6.39)" fill="#a7a7a7"/>
      <path id="Контур_72" data-name="Контур 72" d="M2.1,22.754c1.869-.387,5.634.044,9.646.98v-4.5c-3.432-.99-6.557-1.461-8.225-1.118-.645.134-1.017.378-1.135.7-.476,1.367-1,3.222-1.415,4.61.076-.3.447-.539,1.128-.681" transform="translate(0.745 13.837)" fill="#a7a7a7"/>
      <path id="Контур_73" data-name="Контур 73" d="M1.141,28.992a47.588,47.588,0,0,1,9.685-.248V24.221a34.179,34.179,0,0,0-9.157-.255c-.716.147-1.075.357-1.118.615l-.4,3.346-.12,1.611c.018-.207.375-.394,1.112-.546" transform="translate(0.022 18.253)" fill="#a7a7a7"/>
      <path id="Контур_74" data-name="Контур 74" d="M10.851,34.22V29.6a78.469,78.469,0,0,0-9.744.923c-.755.156-1.112.306-1.107.433C.073,32.471.288,34.485.428,36c0-.06.354-.17,1.118-.327,1.795-.373,5.4-.927,9.305-1.454" transform="translate(0 22.742)" fill="#a7a7a7"/>
      <path id="Контур_75" data-name="Контур 75" d="M17.952,49.013c-2.829,2.543-5.653,4.447-7.411,4.81a1.416,1.416,0,0,1-1.325-.2c1,.987,2.414,2.225,3.457,3.167.826.688,2.836-.136,5.279-2.08Z" transform="translate(7.081 37.659)" fill="#a7a7a7"/>
      <path id="Контур_76" data-name="Контур 76" d="M4.107,17.015c1.791-.371,5.171.428,8.768,1.9v-4.6c-2.688-1.134-5.109-1.717-6.55-1.42a1.6,1.6,0,0,0-1.118.672c-.716,1.22-1.574,2.9-2.232,4.154a1.486,1.486,0,0,1,1.132-.7" transform="translate(2.286 9.844)" fill="#a7a7a7"/>
      <path id="Контур_77" data-name="Контур 77" d="M31.826,46.327c-.686.108-1.611.2-2.3.269,1.484-.1,2.923,1.353,4.007,3.738V46.709a2.56,2.56,0,0,0-1.706-.382" transform="translate(22.686 35.574)" fill="#a7a7a7"/>
      <path id="Контур_78" data-name="Контур 78" d="M29.669,15.3a25.444,25.444,0,0,1,2.5.573,3.468,3.468,0,0,0,1.252-.61V11.426c-1.105,2.141-2.431,3.6-3.751,3.873" transform="translate(22.796 8.779)" fill="#a7a7a7"/>
      <path id="Контур_79" data-name="Контур 79" d="M34.74,45.489a24.618,24.618,0,0,1-2.343.842c1.521-.315,3.316.985,4.925,3.261V46.169a3.6,3.6,0,0,0-2.582-.681" transform="translate(24.892 34.915)" fill="#a7a7a7"/>
      <path id="Контур_80" data-name="Контур 80" d="M32.672,16.167c.783.324,1.554.69,2.3,1.089a5.518,5.518,0,0,0,2.134-1.134V12.314c-1.5,2.12-3.086,3.574-4.439,3.853" transform="translate(25.104 9.461)" fill="#a7a7a7"/>
      <path id="Контур_81" data-name="Контур 81" d="M37.272,44.023a24.5,24.5,0,0,1-2.09,1.326c1.675-.347,4.011,1.109,6.237,3.6V45.41c-1.572-1.068-3.038-1.615-4.147-1.386" transform="translate(27.032 33.786)" fill="#a7a7a7"/>
      <path id="Контур_82" data-name="Контур 82" d="M35.419,17.922c.7.481,1.392,1,2.053,1.542a10.23,10.23,0,0,0,3.763-2.133V13.459c-2.115,2.417-4.262,4.143-5.816,4.463" transform="translate(27.214 10.341)" fill="#a7a7a7"/>
      <path id="Контур_83" data-name="Контур 83" d="M39.425,42.021c-.568.615-1.165,1.2-1.784,1.754,1.848-.384,4.859,1.176,7.807,3.783v-3.57c-2.386-1.466-4.6-2.262-6.023-1.966" transform="translate(28.922 32.239)" fill="#a7a7a7"/>
      <path id="Контур_84" data-name="Контур 84" d="M37.843,20.1c.607.617,1.192,1.264,1.749,1.938a19.1,19.1,0,0,0,5.7-2.944V15.3c-2.852,2.538-5.692,4.437-7.452,4.8" transform="translate(29.077 11.752)" fill="#a7a7a7"/>
      <path id="Контур_85" data-name="Контур 85" d="M39.872,22.417q.737,1.1,1.386,2.271a36.342,36.342,0,0,0,7.4-3.052V18.008c-3.485,2.255-6.9,4.019-8.787,4.409" transform="translate(30.636 13.836)" fill="#a7a7a7"/>
      <path id="Контур_86" data-name="Контур 86" d="M41.132,39.552q-.666,1.1-1.425,2.12c1.949-.4,5.508.989,9.079,3.316V41.506c-3.119-1.484-6.012-2.294-7.653-1.954" transform="translate(30.509 30.331)" fill="#a7a7a7"/>
      <path id="Контур_87" data-name="Контур 87" d="M41.441,24.833q.536,1.244.971,2.541c1.7-.35,4.909-1.287,8.423-2.426V21.486a63.357,63.357,0,0,1-9.394,3.347" transform="translate(31.841 16.509)" fill="#a7a7a7"/>
      <path id="Контур_88" data-name="Контур 88" d="M42.33,36.695q-.456,1.247-1.013,2.43c1.929-.4,5.7.539,9.613,2.212V37.975c-3.574-1.1-6.868-1.637-8.6-1.28" transform="translate(31.746 28.11)" fill="#a7a7a7"/>
      <path id="Контур_89" data-name="Контур 89" d="M42.48,27.5q.308,1.358.5,2.753c1.772-.368,5.3-.928,9.148-1.478V25.368c-4.019.912-7.781,1.744-9.648,2.131" transform="translate(32.64 19.491)" fill="#a7a7a7"/>
      <path id="Контур_90" data-name="Контур 90" d="M42.952,33.54q-.218,1.366-.546,2.679c1.89-.391,5.714.032,9.783.966V33.847c-3.882-.523-7.448-.679-9.236-.308" transform="translate(32.583 25.613)" fill="#a7a7a7"/>
      <path id="Контур_91" data-name="Контур 91" d="M42.947,30.8c.018.817.005,1.629-.039,2.43a45.53,45.53,0,0,1,8.893-.32V29.532a69.816,69.816,0,0,0-8.867.836c.005.145.007.286.012.431" transform="translate(32.969 22.691)" fill="#a7a7a7"/>
      <path id="Контур_92" data-name="Контур 92" d="M6.545,69.687l-2.6,5.257-2.6-5.257h-.8v7.539h.8V71.531l2.6,5.257,2.6-5.257v5.694h.8V69.687Z" transform="translate(0.417 53.544)" fill="#a7a7a7"/>
      <path id="Контур_93" data-name="Контур 93" d="M12.06,73.507A2.993,2.993,0,0,0,9.285,70.4a3.129,3.129,0,0,0,0,6.221,3,3,0,0,0,2.775-3.116m-6.368,0a3.8,3.8,0,0,1,3.593-3.894,3.914,3.914,0,0,1,0,7.8,3.813,3.813,0,0,1-3.593-3.906" transform="translate(4.373 53.487)" fill="#a7a7a7"/>
      <path id="Контур_94" data-name="Контур 94" d="M17.181,73.507A2.993,2.993,0,0,0,14.4,70.4a3.129,3.129,0,0,0,0,6.221,3,3,0,0,0,2.776-3.116m-6.37,0A3.8,3.8,0,0,1,14.4,69.613a3.914,3.914,0,0,1,0,7.8,3.813,3.813,0,0,1-3.593-3.906" transform="translate(8.307 53.487)" fill="#a7a7a7"/>
      <path id="Контур_95" data-name="Контур 95" d="M21.317,69.687v6.134l-4.347-6.134h-.8v7.539h.8V71.091l4.347,6.134h.794V69.687Z" transform="translate(12.427 53.544)" fill="#a7a7a7"/>
      <path id="Контур_96" data-name="Контур 96" d="M22.938,76.214l.5-.668a3.041,3.041,0,0,0,2.3,1.086c1.082,0,1.634-.635,1.634-1.317,0-.8-.665-1.119-1.89-1.427-1.408-.35-2.3-.824-2.3-2.127a2.212,2.212,0,0,1,2.348-2.152,3.376,3.376,0,0,1,2.46,1.077l-.492.668a2.83,2.83,0,0,0-2.011-.967,1.406,1.406,0,0,0-1.5,1.307c0,.78.691,1.054,1.889,1.36,1.335.34,2.3.856,2.3,2.184a2.184,2.184,0,0,1-2.47,2.173,3.671,3.671,0,0,1-2.766-1.2" transform="translate(17.625 53.483)" fill="#a7a7a7"/>
      <path id="Контур_97" data-name="Контур 97" d="M26.932,69.687V70.5h2.359v6.727h.8V70.5h2.357v-.813Z" transform="translate(20.693 53.544)" fill="#a7a7a7"/>
      <path id="Контур_98" data-name="Контур 98" d="M37.193,73.507A2.993,2.993,0,0,0,34.416,70.4a3.129,3.129,0,0,0,0,6.221,3,3,0,0,0,2.776-3.116m-6.37,0a3.8,3.8,0,0,1,3.593-3.894,3.914,3.914,0,0,1,0,7.8,3.813,3.813,0,0,1-3.593-3.906" transform="translate(23.683 53.487)" fill="#a7a7a7"/>
      <path id="Контур_99" data-name="Контур 99" d="M36.892,73.7H38.8c1.144,0,1.919-.592,1.919-1.6s-.775-1.6-1.919-1.6h-1.91Zm2.727.736,1.818,2.789h-.909l-1.775-2.711H36.894v2.711H36.1V69.688h2.849A2.437,2.437,0,0,1,41.531,72.1a2.368,2.368,0,0,1-1.912,2.336" transform="translate(27.738 53.545)" fill="#a7a7a7"/>
      <path id="Контур_100" data-name="Контур 100" d="M40.312,69.688v7.539h5.033v-.813H41.12V73.79h3.807v-.812H41.12V70.5h4.225v-.813Z" transform="translate(30.974 53.545)" fill="#a7a7a7"/>
      <path id="Контур_101" data-name="Контур 101" d="M44.2,76.214l.5-.668A3.041,3.041,0,0,0,47,76.631c1.082,0,1.634-.635,1.634-1.317,0-.8-.665-1.119-1.89-1.427-1.408-.35-2.3-.824-2.3-2.127A2.212,2.212,0,0,1,46.8,69.607a3.376,3.376,0,0,1,2.46,1.077l-.492.668a2.83,2.83,0,0,0-2.011-.967,1.406,1.406,0,0,0-1.5,1.307c0,.78.691,1.054,1.887,1.36,1.337.34,2.3.856,2.3,2.184a2.184,2.184,0,0,1-2.47,2.173,3.671,3.671,0,0,1-2.766-1.2" transform="translate(33.964 53.483)" fill="#a7a7a7"/>
    </g>
  </g>
</svg>
