<svg id="icons_Q2" data-name="icons Q2" xmlns="http://www.w3.org/2000/svg" width="14.319" height="14.283" viewBox="0 0 14.319 14.283">
  <path id="Контур_58" data-name="Контур 58" d="M11.159,5.289h2.9a3.866,3.866,0,0,1,1.324.251,2.4,2.4,0,0,1,1.36,1.36,3.866,3.866,0,0,1,.251,1.324c.036.752.036,1,.036,2.9s0,2.148-.036,2.9a3.866,3.866,0,0,1-.251,1.324,2.4,2.4,0,0,1-1.36,1.36,3.866,3.866,0,0,1-1.324.251H8.26a3.866,3.866,0,0,1-1.324-.251,2.4,2.4,0,0,1-1.36-1.36,3.866,3.866,0,0,1-.251-1.324c-.036-.752-.036-1-.036-2.9s0-2.148.036-2.9A3.866,3.866,0,0,1,5.575,6.9a2.4,2.4,0,0,1,1.36-1.36A3.866,3.866,0,0,1,8.26,5.289h2.9m0-1.289H8.224a6.408,6.408,0,0,0-1.754.322,3.58,3.58,0,0,0-1.253.895A3.043,3.043,0,0,0,4.394,6.47a5.191,5.191,0,0,0-.358,1.754C4,8.976,4,9.226,4,11.159s0,2.184.036,2.935a5.191,5.191,0,0,0,.358,1.754A3.043,3.043,0,0,0,5.217,17.1a3.043,3.043,0,0,0,1.253.823,5.19,5.19,0,0,0,1.754.358h5.871a5.191,5.191,0,0,0,1.754-.358A3.043,3.043,0,0,0,17.1,17.1a3.58,3.58,0,0,0,.859-1.253,6.408,6.408,0,0,0,.322-1.754c.036-.752.036-1,.036-2.935s0-2.184-.036-2.935a6.408,6.408,0,0,0-.322-1.754A3.58,3.58,0,0,0,17.1,5.217a3.58,3.58,0,0,0-1.253-.859,6.408,6.408,0,0,0-1.754-.322H11.159" transform="translate(-4 -4)" fill="#a7a7a7"/>
  <path id="Контур_59" data-name="Контур 59" d="M17.387,13.7a3.687,3.687,0,1,0,3.687,3.687A3.687,3.687,0,0,0,17.387,13.7m0,6.085a2.4,2.4,0,1,1,2.4-2.4,2.4,2.4,0,0,1-2.4,2.4" transform="translate(-10.228 -10.228)" fill="#a7a7a7"/>
  <path id="Контур_60" data-name="Контур 60" d="M34.018,11.759a.859.859,0,1,1-.859-.859.859.859,0,0,1,.859.859" transform="translate(-22.17 -8.43)" fill="#a7a7a7"/>
</svg>
