<svg id="Сгруппировать_14" data-name="Сгруппировать 14" xmlns="http://www.w3.org/2000/svg" xmlns:xlink="http://www.w3.org/1999/xlink" width="120" height="65.871" viewBox="0 0 120 65.871">
  <defs>
    <clipPath id="clip-path">
      <rect id="Прямоугольник_15" data-name="Прямоугольник 15" width="120" height="65.871" fill="#232323"/>
    </clipPath>
  </defs>
  <path id="Контур_14" data-name="Контур 14" d="M15.684,11.611,9.2,23.691,2.718,11.611H0V30.094H2.718V16.938L9.2,29.018l6.484-12.081V30.094H18.4V11.611Z" transform="translate(0 9.283)" fill="#232323"/>
  <path id="Контур_15" data-name="Контур 15" d="M78.925,11.611V25.628L68.3,11.611H65.583V30.094H68.3V16.078L78.925,30.094h2.719V11.611Z" transform="translate(38.355 9.283)" fill="#232323"/>
  <g id="Сгруппировать_13" data-name="Сгруппировать 13">
    <g id="Сгруппировать_12" data-name="Сгруппировать 12" clip-path="url(#clip-path)">
      <path id="Контур_16" data-name="Контур 16" d="M58.338,41.023l.542-.667a2.822,2.822,0,0,0,2.012.854c.845,0,1.283-.445,1.283-.933,0-.581-.507-.8-1.533-1.033-1.246-.294-2.074-.669-2.074-1.773a1.923,1.923,0,0,1,2.119-1.8,3.245,3.245,0,0,1,2.234.863l-.516.678a2.631,2.631,0,0,0-1.753-.748,1.055,1.055,0,0,0-1.167.926c0,.569.526.766,1.532,1.005,1.22.285,2.065.7,2.065,1.79,0,1.032-.783,1.815-2.225,1.815a3.526,3.526,0,0,1-2.519-.979" transform="translate(27.406 16.758)" fill="#232323"/>
      <path id="Контур_17" data-name="Контур 17" d="M64.116,36.588h-2v-.836h4.912v.836H65.014v5.279h-.9Z" transform="translate(29.18 16.795)" fill="#232323"/>
      <path id="Контур_18" data-name="Контур 18" d="M71.172,38.838a2.25,2.25,0,1,0-2.244,2.341,2.319,2.319,0,0,0,2.244-2.341m-5.422,0a3.17,3.17,0,1,1,3.178,3.169,3.212,3.212,0,0,1-3.178-3.169" transform="translate(30.888 16.761)" fill="#232323"/>
      <path id="Контур_19" data-name="Контур 19" d="M71.714,38.9h1.549c.882,0,1.477-.438,1.477-1.158s-.6-1.158-1.477-1.158H71.714Zm2.378.747,1.556,2.218H74.617L73.122,39.74H71.714v2.128h-.9V35.751h2.572a2.084,2.084,0,0,1,2.271,1.994,1.961,1.961,0,0,1-1.567,1.9" transform="translate(33.268 16.795)" fill="#232323"/>
      <path id="Контур_20" data-name="Контур 20" d="M75.718,36.588v1.745h3.239v.838H75.718v1.859h3.588v.838h-4.5V35.751h4.5v.836Z" transform="translate(35.144 16.795)" fill="#232323"/>
      <path id="Контур_21" data-name="Контур 21" d="M78.416,41.023l.542-.667a2.822,2.822,0,0,0,2.012.854c.845,0,1.283-.445,1.283-.933,0-.581-.507-.8-1.533-1.033-1.246-.294-2.074-.669-2.074-1.773a1.923,1.923,0,0,1,2.119-1.8A3.252,3.252,0,0,1,83,36.536l-.517.678a2.631,2.631,0,0,0-1.753-.748,1.055,1.055,0,0,0-1.167.926c0,.569.526.766,1.532,1.005,1.22.285,2.065.7,2.065,1.79,0,1.032-.783,1.815-2.225,1.815a3.526,3.526,0,0,1-2.519-.979" transform="translate(36.838 16.758)" fill="#232323"/>
      <path id="Контур_22" data-name="Контур 22" d="M31.216,26.235c-2.556.6-4.969,1.145-6.152,1.389a4.545,4.545,0,0,1-.71.126c.2.851.542,1.97.78,2.812l.04.122c.018.053.251.037.726-.062,1.067-.22,3.1-.8,5.316-1.507Z" transform="translate(11.441 12.325)" fill="#232323"/>
      <path id="Контур_23" data-name="Контур 23" d="M32.476,30.024a38.675,38.675,0,0,1-5.96,2.162c-.466.1-.71.09-.753,0l.589,1.268.725,1.4c.066.121.319.144.773.05a23.09,23.09,0,0,0,4.625-1.877Z" transform="translate(12.103 14.105)" fill="#232323"/>
      <path id="Контур_24" data-name="Контур 24" d="M33.87,33.61a19.429,19.429,0,0,1-5.188,2.59c-.438.093-.7.054-.8-.091.5.725,1.224,1.652,1.756,2.353.128.156.4.2.816.113a11.625,11.625,0,0,0,3.416-1.712Z" transform="translate(13.098 15.789)" fill="#232323"/>
      <path id="Контур_25" data-name="Контур 25" d="M34.748,42.446a1.017,1.017,0,0,1-.794-.1l1.7,1.063.8.448a1.092,1.092,0,0,0,.755.079,3.765,3.765,0,0,0,1.468-.823V39.29c-1.407,1.7-2.882,2.94-3.927,3.156" transform="translate(15.951 18.458)" fill="#232323"/>
      <path id="Контур_26" data-name="Контур 26" d="M38.447,44.38a1.172,1.172,0,0,1-.683-.044l.544.213c.664.254,1.574.531,2.249.758a1.237,1.237,0,0,0,.6.015,1.739,1.739,0,0,0,.426-.169V41.385c-1.03,1.634-2.174,2.8-3.134,3" transform="translate(17.741 19.442)" fill="#232323"/>
      <path id="Контур_27" data-name="Контур 27" d="M41.981,45.493c.9.14,2.1.25,3.009.342V42.65c-.827,1.82-1.908,2.915-3.009,2.843" transform="translate(19.722 20.036)" fill="#232323"/>
      <path id="Контур_28" data-name="Контур 28" d="M45,0,42.87.037c.952-.051,1.868.914,2.537,2.485V.013Z" transform="translate(20.139)" fill="#232323"/>
      <path id="Контур_29" data-name="Контур 29" d="M41.388.308l-.719.14L38.6.964c.966-.2,2.1.644,3.11,2.106V.3a1.219,1.219,0,0,0-.319.01" transform="translate(18.132 0.137)" fill="#232323"/>
      <path id="Контур_30" data-name="Контур 30" d="M37.174,1.576c-.8.354-1.837.889-2.616,1.285a1.262,1.262,0,0,1,.373-.138c1.042-.216,2.491.7,3.868,2.253V1.795a2.152,2.152,0,0,0-1.626-.219" transform="translate(16.235 0.704)" fill="#232323"/>
      <path id="Контур_31" data-name="Контур 31" d="M36.189,7.367V4.189c-1.076-.66-2.087-.9-2.844-.469-.663.486-1.509,1.186-2.15,1.7l-.113.1c1.008-.769,3.007.037,5.107,1.845" transform="translate(14.602 1.646)" fill="#232323"/>
      <path id="Контур_32" data-name="Контур 32" d="M34.132,10.3V7.283a5.687,5.687,0,0,0-3.458-1.02,1.137,1.137,0,0,0-.631.334l-.88,1.008L28.191,8.83a1.081,1.081,0,0,1,.67-.381c1.143-.237,3.182.534,5.271,1.849" transform="translate(13.243 2.924)" fill="#232323"/>
      <path id="Контур_33" data-name="Контур 33" d="M25.166,16.431a17.312,17.312,0,0,1,6,.61v-2.8a12.865,12.865,0,0,0-5.115-.7c-.4.082-.633.235-.707.438-.3.85-.623,2-.88,2.866.05-.19.278-.335.7-.423" transform="translate(11.492 6.333)" fill="#232323"/>
      <path id="Контур_34" data-name="Контур 34" d="M24.45,21.039a29.5,29.5,0,0,1,6.026-.154V18.068a21.261,21.261,0,0,0-5.7-.157c-.445.091-.669.223-.7.384l-.25,2.08-.075,1c.007-.126.231-.244.689-.338" transform="translate(11.162 8.353)" fill="#232323"/>
      <path id="Контур_35" data-name="Контур 35" d="M30.488,25.029V22.154a48.969,48.969,0,0,0-6.061.575c-.47.1-.691.19-.689.27.046.942.181,2.2.268,3.137,0-.038.22-.1.7-.2,1.117-.232,3.356-.576,5.788-.9" transform="translate(11.151 10.407)" fill="#232323"/>
      <path id="Контур_36" data-name="Контур 36" d="M36.07,36.684a12.747,12.747,0,0,1-4.611,2.992.881.881,0,0,1-.825-.123c.625.614,1.5,1.383,2.152,1.969.514.428,1.765-.085,3.283-1.293Z" transform="translate(14.392 17.233)" fill="#232323"/>
      <path id="Контур_37" data-name="Контур 37" d="M26.667,12.2c1.114-.231,3.217.267,5.453,1.182V10.522a8.091,8.091,0,0,0-4.076-.883,1,1,0,0,0-.7.419c-.444.76-.977,1.8-1.387,2.584a.931.931,0,0,1,.705-.437" transform="translate(12.196 4.505)" fill="#232323"/>
      <path id="Контур_38" data-name="Контур 38" d="M47.268,34.671c-.428.068-1,.122-1.433.168.924-.06,1.82.842,2.494,2.325V34.909a1.59,1.59,0,0,0-1.061-.238" transform="translate(21.532 16.279)" fill="#232323"/>
      <path id="Контур_39" data-name="Контур 39" d="M45.943,10.961a15.45,15.45,0,0,1,1.554.357,2.109,2.109,0,0,0,.78-.382V8.551c-.688,1.333-1.512,2.241-2.334,2.41" transform="translate(21.583 4.017)" fill="#232323"/>
      <path id="Контур_40" data-name="Контур 40" d="M49.443,34.041a15.076,15.076,0,0,1-1.458.523c.948-.2,2.065.613,3.064,2.027V34.465a2.236,2.236,0,0,0-1.606-.423" transform="translate(22.542 15.978)" fill="#232323"/>
      <path id="Контур_41" data-name="Контур 41" d="M48.192,11.614c.488.2.967.429,1.433.676a3.407,3.407,0,0,0,1.327-.7V9.217a5.526,5.526,0,0,1-2.76,2.4" transform="translate(22.64 4.33)" fill="#232323"/>
      <path id="Контур_42" data-name="Контур 42" d="M51.371,32.944a15.155,15.155,0,0,1-1.3.825c1.042-.215,2.5.689,3.88,2.24v-2.2a3.706,3.706,0,0,0-2.579-.863" transform="translate(23.522 15.461)" fill="#232323"/>
      <path id="Контур_43" data-name="Контур 43" d="M50.248,12.85q.657.45,1.277.96a6.351,6.351,0,0,0,2.341-1.327V10.074a8.336,8.336,0,0,1-3.619,2.776" transform="translate(23.605 4.733)" fill="#232323"/>
      <path id="Контур_44" data-name="Контур 44" d="M53.021,31.444c-.356.382-.725.747-1.111,1.091,1.149-.238,3.022.732,4.858,2.355V32.667a6.037,6.037,0,0,0-3.746-1.223" transform="translate(24.386 14.754)" fill="#232323"/>
      <path id="Контур_45" data-name="Контур 45" d="M52.061,14.436q.567.575,1.088,1.205A11.842,11.842,0,0,0,56.7,13.808V11.449a12.922,12.922,0,0,1-4.636,2.987" transform="translate(24.457 5.378)" fill="#232323"/>
      <path id="Контур_46" data-name="Контур 46" d="M53.581,16.222c.3.456.594.927.861,1.412a22.693,22.693,0,0,0,4.6-1.9V13.478a20.6,20.6,0,0,1-5.466,2.744" transform="translate(25.171 6.332)" fill="#232323"/>
      <path id="Контур_47" data-name="Контур 47" d="M54.343,29.594c-.276.456-.572.9-.886,1.318,1.211-.25,3.426.616,5.648,2.065V30.813c-1.942-.924-3.741-1.43-4.762-1.218" transform="translate(25.113 13.88)" fill="#232323"/>
      <path id="Контур_48" data-name="Контур 48" d="M54.755,18.165c.223.514.425,1.044.6,1.581,1.055-.219,3.054-.8,5.24-1.509V16.082a39.377,39.377,0,0,1-5.844,2.083" transform="translate(25.723 7.555)" fill="#232323"/>
      <path id="Контур_49" data-name="Контур 49" d="M55.292,27.451q-.284.776-.629,1.512c1.2-.25,3.548.332,5.979,1.374V28.246a13.176,13.176,0,0,0-5.35-.8" transform="translate(25.679 12.864)" fill="#232323"/>
      <path id="Контур_50" data-name="Контур 50" d="M55.533,20.312q.19.842.31,1.712c1.1-.228,3.3-.578,5.692-.919V18.988c-2.5.567-4.841,1.085-6,1.324" transform="translate(26.088 8.92)" fill="#232323"/>
      <path id="Контур_51" data-name="Контур 51" d="M55.817,25.077q-.134.849-.34,1.667a17.665,17.665,0,0,1,6.085.6V25.269a20.978,20.978,0,0,0-5.745-.191" transform="translate(26.062 11.721)" fill="#232323"/>
      <path id="Контур_52" data-name="Контур 52" d="M55.877,22.893c.01.509,0,1.013-.025,1.512a28.287,28.287,0,0,1,5.534-.2V22.1a43.34,43.34,0,0,0-5.516.52c0,.09,0,.179.007.269" transform="translate(26.238 10.384)" fill="#232323"/>
    </g>
  </g>
</svg>
