<svg xmlns="http://www.w3.org/2000/svg" width="16.628" height="16.628" viewBox="1762 570 16.628 16.628"><path d="M1770.314 570a8.313 8.313 0 0 0-3.028 16.057c-.073-.658-.141-1.667.027-2.387.151-.647.974-4.133.974-4.133s-.246-.498-.246-1.234c0-1.155.668-2.019 1.502-2.019.709 0 1.053.533 1.053 1.172 0 .715-.455 1.78-.69 2.769-.195.828.416 1.502 1.23 1.502 1.479 0 2.615-1.559 2.615-3.808 0-1.99-1.429-3.38-3.472-3.38-2.365 0-3.754 1.772-3.754 3.607 0 .715.276 1.48.62 1.897a.25.25 0 0 1 .057.239l-.23.941c-.038.155-.122.187-.28.111-1.038-.481-1.688-2-1.688-3.22 0-2.623 1.905-5.031 5.494-5.031 2.885 0 5.126 2.054 5.126 4.803 0 2.864-1.808 5.17-4.314 5.17-.842 0-1.635-.436-1.905-.953l-.52 1.976c-.187.722-.693 1.626-1.034 2.178.78.241 1.605.371 2.463.371a8.313 8.313 0 0 0 8.314-8.314 8.313 8.313 0 0 0-8.314-8.314Z" fill="#a7a7a7" fill-rule="evenodd" data-name="pinterest-svgrepo-com"/></svg>