<svg xmlns="http://www.w3.org/2000/svg" width="11.772" height="10.097" viewBox="0 0 11.772 10.097">
  <path id="pinterest-svgrepo-com" d="M9.886,4C6.634,4,4,6.26,4,9.048a5.133,5.133,0,0,0,3.742,4.7A4.15,4.15,0,0,1,7.761,12.3c.107-.393.69-2.509.69-2.509a1.624,1.624,0,0,1-.174-.749A1.136,1.136,0,0,1,9.34,7.816a.68.68,0,0,1,.745.712A8.935,8.935,0,0,1,9.6,10.209c-.138.5.3.912.872.912,1.046,0,1.851-.947,1.851-2.312A2.183,2.183,0,0,0,9.861,6.756,2.392,2.392,0,0,0,7.2,8.947,1.787,1.787,0,0,0,7.642,10.1a.137.137,0,0,1,.04.145c-.046.159-.144.5-.163.572-.027.094-.086.113-.2.067a2.194,2.194,0,0,1-1.2-1.956c0-1.592,1.349-3.055,3.889-3.055,2.042,0,3.629,1.247,3.629,2.917a3.039,3.039,0,0,1-3.054,3.139,1.664,1.664,0,0,1-1.349-.578l-.368,1.2a5.254,5.254,0,0,1-.732,1.323,6.8,6.8,0,0,0,1.744.225c3.251,0,5.886-2.26,5.886-5.048S13.137,4,9.886,4Z" transform="translate(-4 -4)" fill="#a7a7a7"/>
</svg>
