<svg xmlns="http://www.w3.org/2000/svg" width="13.356" height="13.469" viewBox="0 0 13.356 13.469">
  <g id="shopping-cart-svgrepo-com" transform="translate(-1.999)" opacity="0.5">
    <path id="Контур_3" data-name="Контур 3" d="M37.676,379.875a2.035,2.035,0,1,0,2.035,2.035A2.038,2.038,0,0,0,37.676,379.875Zm0,2.812a.777.777,0,1,1,.777-.777A.778.778,0,0,1,37.676,382.687Z" transform="translate(-32.231 -370.477)"/>
    <path id="Контур_4" data-name="Контур 4" d="M296.208,379.875a2.035,2.035,0,1,0,2.035,2.035A2.037,2.037,0,0,0,296.208,379.875Zm0,2.812a.777.777,0,1,1,.777-.777A.778.778,0,0,1,296.208,382.687Z" transform="translate(-284.957 -370.477)"/>
    <path id="Контур_5" data-name="Контур 5" d="M13.614,0l-.278,1.4H2L2.81,5.488A1.46,1.46,0,0,0,4.273,6.511h8.046l-.185.931H3.373v.7h9.481L14.334.7h1.021V0ZM12.458,5.814H4.273a.652.652,0,0,1-.627-.438L3,2.094H13.2Z" transform="translate(0)"/>
  </g>
</svg>
