<svg xmlns="http://www.w3.org/2000/svg" width="20" height="11.434" viewBox="1640 572 20 11.434"><path d="M1657.802 580.015s1.617 1.597 2.017 2.336c.008.01.014.022.018.035.163.273.203.487.123.645-.135.26-.592.392-.747.403h-2.858c-.199 0-.613-.052-1.117-.4-.385-.27-.768-.712-1.139-1.145-.554-.643-1.033-1.201-1.518-1.201a.548.548 0 0 0-.18.03c-.367.116-.833.639-.833 2.032 0 .436-.344.684-.585.684h-1.309c-.446 0-2.768-.156-4.827-2.327-2.523-2.658-4.789-7.99-4.81-8.037-.142-.345.154-.533.474-.533h2.886c.387 0 .513.234.601.444.102.24.48 1.205 1.1 2.288 1.004 1.762 1.621 2.479 2.114 2.479a.527.527 0 0 0 .264-.07c.644-.354.524-2.654.494-3.128 0-.092 0-1.027-.33-1.48-.237-.323-.639-.45-.882-.495.065-.094.203-.238.38-.323.441-.22 1.238-.252 2.03-.252h.438c.858.012 1.08.067 1.392.146.628.15.64.557.585 1.943-.016.396-.033.842-.033 1.367 0 .112-.005.237-.005.364-.019.71-.044 1.512.458 1.84a.41.41 0 0 0 .217.063c.174 0 .695 0 2.108-2.425.62-1.071 1.1-2.334 1.133-2.43.028-.052.112-.201.214-.261a.479.479 0 0 1 .236-.056h3.395c.37 0 .621.056.67.196.082.227-.016.92-1.566 3.016-.26.349-.49.65-.69.915-1.406 1.844-1.406 1.937.082 3.337Z" fill="#a4a4a4" fill-rule="evenodd" data-name="vk-svgrepo-com"/></svg>